<svg viewBox="0 0 146 133" xmlns="http://www.w3.org/2000/svg" data-name="Layer 1" id="Layer_1">
  <defs>
    <style>
      .cls-1 {
        fill: #fcfcfc;
        stroke-width: 0px;
      }
    </style>
  </defs>
  <g id="onrNVY.tif">
    <g>
      <path d="M122.52,69.97c-.32,2.06-.57,4.13-.97,6.18-2.18,10.94-7.5,20.09-15.83,27.49-6.16,5.47-13.28,9.13-21.29,11.03-7.12,1.69-14.29,1.81-21.46.29-11.37-2.41-20.75-8.12-28.18-17.05-4.85-5.84-8.14-12.47-9.91-19.84-1.72-7.15-1.86-14.34-.34-21.55,2.34-11.13,7.86-20.38,16.47-27.77,6.09-5.23,13.11-8.71,20.93-10.5,2.31-.53,4.7-.74,7.05-1.1.25-.04.49-.11.74-.17,2.19,0,4.38,0,6.58,0,.28.06.55.13.83.17,2.35.36,4.73.58,7.05,1.11,7.78,1.78,14.77,5.25,20.83,10.45,9.03,7.75,14.68,17.49,16.76,29.25.3,1.67.51,3.36.75,5.03v6.96ZM119.04,66.53c-.05-25.43-20.45-45.84-45.62-46.04-25.72-.2-46.27,20.43-46.4,45.62-.14,25.68,20.44,46.37,45.94,46.39,25.4.02,46.07-20.6,46.09-45.98Z" class="cls-1"></path>
      <path d="M39.95,53.94c.33-1.42.52-2.87,1-4.22.65-1.87,2.17-2.99,3.94-3.75,1.81-.77,3.61-1.53,5.45-2.23,1.75-.66,3.46-.02,4.4,1.59,1.69,2.89,3.36,5.78,5.04,8.67,1.03,1.79.53,3.86-1.29,4.93-1.55.91-2.79,2.02-3.31,3.82-.52,1.83-.27,3.54.84,5.05,3.43,4.66,7.41,8.82,11.82,12.56,1.1.94,2.23,1.85,3.39,2.72,2.99,2.24,6.94,1.41,8.8-1.82,1.39-2.41,3.36-2.88,5.77-1.46,2.35,1.39,4.76,2.7,7.1,4.11.84.5,1.66,1.11,2.3,1.84.73.85.83,1.96.4,3.02-.92,2.22-1.85,4.44-2.86,6.63-1.07,2.31-3.15,3.19-5.5,3.57-2.47.4-4.89.02-7.26-.64-4.57-1.28-8.71-3.47-12.63-6.1-5.98-4.01-11.23-8.84-15.83-14.36-4.54-5.44-8.41-11.31-10.41-18.2-.54-1.84-.75-3.77-1.13-5.72Z" class="cls-1"></path>
      <path d="M78.57,33.8c10.84.46,18.98,5.18,24.15,14.55,5.23,9.48,3.93,21.44-2.99,29.87-.49.6-.99,1.18-1.52,1.75-.98,1.06-2.36,1.17-3.25.29-.89-.89-.83-2.13.19-3.18,4.71-4.91,6.86-10.78,6.5-17.56-.54-10.28-8.55-19.3-18.78-21.07-7.72-1.34-14.46.75-20.18,6.09-1.42,1.32-3.19,1.03-3.71-.62-.27-.86-.02-1.6.6-2.2,4.05-3.96,8.85-6.49,14.44-7.45,1.55-.27,3.13-.33,4.54-.47Z" class="cls-1"></path>
      <path d="M71.42,66.47c1.79,0,3.58,0,5.36,0,1.55,0,2.46.78,2.46,2.09,0,1.3-.92,2.12-2.46,2.12-3.19.01-6.38.02-9.57,0-2.12-.01-3.03-1.62-2-3.51,1.19-2.16,2.96-3.78,4.84-5.31,1.15-.93,2.33-1.83,3.43-2.82,1.15-1.04,1.35-2.78.53-3.84-.84-1.07-2.96-1.35-4.17-.55-.8.53-.92,1.33-.88,2.21.04.94-.4,1.62-1.24,1.99-.82.36-1.62.23-2.22-.41-.33-.34-.57-.87-.63-1.34-.45-3.8,2.15-6.82,6.06-7.08,3.23-.22,5.98,1.29,7.21,3.98.94,2.06.96,5.68-1.74,8.04-1.5,1.31-3.06,2.55-4.6,3.82-.17.14-.38.21-.58.31.06.09.12.19.19.28Z" class="cls-1"></path>
      <path d="M92.63,66.36c0,.78.03,1.52,0,2.25-.06,1.19-1.01,2.1-2.1,2.07-1.12-.03-2.01-.95-2.05-2.15-.03-.7,0-1.41,0-2.24-.41,0-.75,0-1.09,0-2.19,0-4.38,0-6.57,0-.92,0-1.64-.35-2.03-1.2-.38-.83-.27-1.63.32-2.34,3.27-3.97,6.55-7.95,9.82-11.92.62-.75,1.42-.98,2.34-.67.94.31,1.37,1.02,1.38,1.99,0,2.9,0,5.8,0,8.7,0,.35,0,.7,0,.85.79.48,1.53.79,2.08,1.3.29.27.36.89.36,1.34-.02,1.16-.79,1.79-2.44,2.01ZM85.15,62h3.27v-3.98c-1.15,1.4-2.17,2.64-3.27,3.98Z" class="cls-1"></path>
    </g>
  </g>
</svg>