<svg viewBox="0 0 146 133" xmlns="http://www.w3.org/2000/svg" data-name="Layer 1" id="Layer_1">
  <defs>
    <style>
      .cls-1 {
        fill: #fcfcfc;
        stroke-width: 0px;
      }
    </style>
  </defs>
  <g id="CzcTS6.tif">
    <g>
      <path d="M13.16,62.78c.39-2.64.67-5.31,1.2-7.93,2.81-13.93,9.74-25.41,20.65-34.49,7.02-5.85,15.01-9.81,23.87-11.96,8.63-2.09,17.33-2.31,26.04-.46,16.06,3.4,28.79,11.9,37.86,25.53,9.17,13.79,12.05,29,8.73,45.24-2.81,13.75-9.79,25.06-20.58,34.02-7.19,5.97-15.37,9.96-24.45,12.07-2.76.64-5.6.89-8.4,1.33-.3.05-.59.13-.89.2h-8.41c-.33-.07-.67-.16-1-.21-2.84-.46-5.71-.74-8.5-1.39-9.71-2.27-18.34-6.71-25.8-13.35-10.43-9.29-16.92-20.8-19.37-34.57-.37-2.1-.62-4.21-.93-6.32,0-2.57,0-5.14,0-7.71ZM128.59,66.55c-.07-30.72-24.72-55.38-55.14-55.61-31.08-.24-55.92,24.74-56.05,55.27-.12,30.93,24.77,55.9,55.53,55.92,30.68.02,55.65-24.92,55.66-55.58Z" class="cls-1"></path>
      <path d="M91.43,100.19c-2.52-.18-5.05-.4-7.57-.49-.62-.02-1.36.25-1.85.64-1.64,1.31-3.16,2.77-4.77,4.11-2.42,2.01-6.1,2.01-8.52-.01-1.64-1.37-3.2-2.84-4.86-4.19-.43-.35-1.1-.58-1.65-.56-2.68.12-5.36.35-8.04.53-3.92.25-6.84-2.04-7.61-5.88-.43-2.13-.97-4.24-1.51-6.35-.08-.32-.4-.66-.7-.84-2.26-1.38-4.51-2.76-6.81-4.06-3.6-2.03-4.87-5.62-3.27-9.46.88-2.11,1.78-4.22,2.6-6.36.17-.44.19-1.06.02-1.51-.78-2.07-1.63-4.11-2.5-6.15-1.77-4.14-.58-7.61,3.32-9.78,1.94-1.08,3.84-2.22,5.71-3.41.44-.28.84-.82,1.01-1.32.83-2.42,1.59-4.87,2.35-7.32,1.06-3.42,3.99-5.35,7.57-5.03,2.64.24,5.28.44,7.92.55.58.03,1.29-.25,1.75-.62,1.6-1.3,3.08-2.74,4.67-4.05,2.48-2.06,6.13-2.05,8.61.01,1.58,1.32,3.07,2.75,4.67,4.05.46.37,1.17.63,1.75.6,2.68-.12,5.36-.33,8.04-.57,3.6-.32,6.77,1.97,7.58,5.52.5,2.2.99,4.4,1.55,6.58.09.36.4.76.72.95,2.25,1.39,4.49,2.79,6.8,4.09,3.67,2.07,4.92,5.62,3.29,9.54-.88,2.11-1.78,4.22-2.61,6.36-.16.41-.16.99,0,1.4.81,2.1,1.67,4.18,2.55,6.25,1.72,4.06.51,7.56-3.31,9.71-2.27,1.28-4.48,2.65-6.69,4.03-.35.22-.66.66-.76,1.06-.56,2.18-1.01,4.39-1.55,6.58-.83,3.36-3.7,5.89-7.87,5.37ZM47.58,66.58c.06,14.02,11.48,25.39,25.45,25.35,13.99-.04,25.4-11.49,25.35-25.45-.04-14-11.5-25.41-25.45-25.35-14.01.06-25.42,11.51-25.35,25.45Z" class="cls-1"></path>
      <path d="M93.79,66.59c-.01,11.42-9.41,20.76-20.87,20.74-11.41-.01-20.79-9.44-20.75-20.87.03-11.42,9.46-20.79,20.88-20.75,11.43.03,20.76,9.42,20.74,20.88ZM70.65,70.25c-2.52-2.55-4.95-5-7.38-7.45-1.15-1.17-2.75-1.16-3.66.02-.77.99-.65,2.17.41,3.23,2.85,2.87,5.72,5.73,8.58,8.59,1.52,1.51,2.67,1.5,4.18-.02,1.29-1.3,2.57-2.59,3.86-3.89,3.16-3.17,6.32-6.32,9.46-9.5.96-.97.98-2.23.14-3.13-1.03-1.11-2.38-1.09-3.58.1-3.09,3.07-6.17,6.16-9.25,9.24-.9.9-1.79,1.81-2.77,2.81Z" class="cls-1"></path>
    </g>
  </g>
</svg>