<svg viewBox="0 0 146 133" xmlns="http://www.w3.org/2000/svg" data-name="Layer 1" id="Layer_1">
  <defs>
    <style>
      .cls-1 {
        fill: #fcfcfc;
        stroke-width: 0px;
      }
    </style>
  </defs>
  <g id="la8sap.tif">
    <path d="M68.88,125.31c-2.45-.38-4.91-.67-7.34-1.16-13.71-2.76-24.99-9.59-33.93-20.33-5.87-7.06-9.8-15.1-11.87-24.02-1.94-8.35-2.06-16.75-.29-25.16,2.78-13.22,9.35-24.21,19.58-32.98,7.21-6.18,15.51-10.31,24.76-12.44,8.35-1.92,16.75-2.06,25.16-.26,15.7,3.38,28.04,11.78,37.03,25.04,5.64,8.32,8.76,17.59,9.63,27.62.02.26.12.51.19.76v8.27c-.07.37-.15.73-.21,1.11-.43,2.71-.7,5.47-1.32,8.14-2.08,8.91-6.01,16.94-11.88,23.98-8.93,10.72-20.21,17.53-33.91,20.28-2.42.49-4.89.78-7.33,1.16h-8.27ZM127.67,66.55c-.07-30.2-24.29-54.44-54.19-54.67-30.54-.23-54.97,24.32-55.08,54.33-.12,30.4,24.34,54.95,54.57,54.97,30.15.02,54.69-24.49,54.7-54.63Z" class="cls-1"></path>
    <g>
      <path d="M73.7,32.9c5.84,0,11.67,0,17.51,0,1.92,0,2.88.82,3.16,2.71.85,5.64,5.12,9.82,10.74,10.5,1.58.19,2.53,1.24,2.53,2.84,0,6.32.17,12.65-.06,18.96-.44,12.05-5,22.44-13.34,31.14-5.4,5.64-11.86,9.67-19.26,12.19-.89.3-1.72.32-2.61,0-15.5-5.59-25.82-16.19-30.78-31.91-1.39-4.39-1.92-8.94-1.9-13.55.02-5.53,0-11.05,0-16.58,0-1.93.84-2.87,2.74-3.11,5.4-.68,9.76-4.98,10.52-10.39.28-1.99,1.22-2.81,3.23-2.81,5.84,0,11.67,0,17.51,0ZM73.69,35.21c-5.84,0-11.67,0-17.51,0-.55,0-.83.12-.93.72-1.02,6.65-5.72,11.37-12.4,12.43-.7.11-.86.36-.86,1.02.02,5.5.02,11,.01,16.51-.01,5.06.71,10,2.43,14.76,5.03,13.85,14.51,23.29,28.37,28.31.58.21,1.09.23,1.69.03,6.46-2.24,12.19-5.68,17.05-10.48,8.83-8.73,13.52-19.29,13.76-31.73.11-5.81.02-11.62.04-17.43,0-.63-.16-.87-.83-.97-7.47-1.08-11.89-7.04-12.44-12.47-.06-.64-.44-.68-.96-.68-5.81.01-11.62,0-17.43,0Z" class="cls-1"></path>
      <path d="M73.71,38.58c4.56,0,9.11,0,13.67,0,1.31,0,1.77.32,2.24,1.54,1.98,5.14,5.56,8.67,10.69,10.64,1.32.51,1.62.93,1.62,2.34,0,4.35.02,8.7,0,13.05-.06,8.18-2.29,15.73-6.74,22.61-.12.19-.24.4-.39.57-.44.48-.98.56-1.52.2-.51-.34-.64-.85-.39-1.42.1-.23.26-.44.4-.66,4.16-6.47,6.27-13.55,6.33-21.24.04-4.2,0-8.39.02-12.59,0-.49-.16-.71-.61-.89-5.36-2.18-9.16-5.95-11.37-11.3-.17-.42-.38-.56-.83-.56-8.75.01-17.51.01-26.26,0-.49,0-.7.15-.88.6-2.21,5.31-6,9.07-11.33,11.25-.48.19-.64.42-.64.95.03,4.15,0,8.29.02,12.44.12,16.37,10.07,30.85,25.32,36.83.35.14.86.15,1.21.01,5.69-2.22,10.6-5.6,14.78-10.06.21-.22.41-.46.63-.67.55-.54,1.22-.57,1.7-.1.46.45.49,1.12-.01,1.65-1.23,1.27-2.44,2.56-3.76,3.73-3.79,3.36-8.07,5.92-12.78,7.77-.79.31-1.5.32-2.29-.01-13.46-5.58-22.23-15.29-25.94-29.44-.85-3.25-1.17-6.59-1.17-9.95,0-4.27,0-8.55,0-12.82,0-1.32.31-1.76,1.55-2.23,5.19-1.99,8.81-5.54,10.8-10.74.45-1.17.92-1.48,2.21-1.48,4.58,0,9.16,0,13.74,0Z" class="cls-1"></path>
      <path d="M82.42,63.88h2.3c0-.54.02-1.07,0-1.59-.09-2.14.09-4.34-.33-6.42-1.43-7.21-9.69-10.86-16.11-7.24-.18.1-.35.22-.53.31-.65.32-1.27.16-1.6-.4-.33-.56-.17-1.19.45-1.58,1.6-1.02,3.34-1.68,5.22-1.91,7.3-.89,13.65,3.69,14.96,10.88.31,1.72.18,3.52.25,5.28.01.36.02.72,0,1.07-.08,1.36-.05,2.54,1.32,3.5,1.2.84,1.62,2.33,1.62,3.83,0,4.5.03,9.01,0,13.51-.02,3.2-2.52,5.69-5.72,5.7-7.04.02-14.08.02-21.11,0-3.21-.01-5.71-2.5-5.73-5.69-.03-4.5-.02-9.01,0-13.51,0-1.89.82-3.42,2.33-4.53.48-.35.61-.71.61-1.26.02-2.45,0-4.91.15-7.36.12-1.86.83-3.57,1.81-5.16.4-.65,1.06-.84,1.63-.51.57.33.75,1.01.35,1.67-1.28,2.11-1.72,4.4-1.65,6.83.04,1.51,0,3.01,0,4.57h2.3c0-1.8,0-3.58,0-5.36,0-1.64.36-3.19,1.19-4.62,2-3.42,5.9-5.05,9.75-4.08,3.69.93,6.39,4.27,6.52,8.16.06,1.69.02,3.38.02,5.07,0,.27,0,.55,0,.86ZM73.65,86.51c3.45,0,6.91,0,10.36,0,2.21,0,3.63-1.44,3.64-3.66,0-4.3,0-8.6,0-12.89,0-2.3-1.43-3.72-3.75-3.72-6.81,0-13.61,0-20.42,0-2.37,0-3.79,1.41-3.79,3.76,0,4.25,0,8.49,0,12.74,0,2.38,1.39,3.77,3.75,3.78,3.4,0,6.81,0,10.21,0ZM80.08,63.89c0-2.08.11-4.1-.02-6.11-.22-3.3-2.76-5.71-6.06-5.94-2.99-.21-6.02,1.9-6.52,4.93-.38,2.32-.24,4.72-.33,7.12h12.93Z" class="cls-1"></path>
      <path d="M70.38,78.06c-.21-.87-.36-1.77-.64-2.62-.57-1.76.01-3.67,1.53-4.76,1.49-1.06,3.48-1.02,4.93.1,1.45,1.13,1.95,3,1.36,4.75-.25.73-.33,1.52-.41,2.29-.07.66,0,1.33-.07,1.99-.19,1.78-1.67,3.04-3.46,3.03-1.75-.02-3.18-1.29-3.37-3.04-.06-.55,0-1.12,0-1.68.04-.01.09-.03.13-.04ZM72.55,77.76c0,.59-.04,1.18.01,1.76.05.62.45.97,1.07.98.66.01,1.06-.34,1.15-.99.04-.3.02-.61.03-.92.05-1.36-.19-2.74.58-4.03.39-.65-.03-1.55-.69-2.01-.66-.46-1.5-.44-2.15.05-.64.49-.99,1.36-.6,2.04.58,1,.59,2.04.58,3.11Z" class="cls-1"></path>
    </g>
  </g>
</svg>