<svg viewBox="0 0 146 133" xmlns="http://www.w3.org/2000/svg" data-name="Layer 1" id="Layer_1">
  <defs>
    <style>
      .cls-1 {
        fill: #fcfcfc;
        stroke-width: 0px;
      }
    </style>
  </defs>
  <g id="GIQGKS.tif">
    <g>
      <path d="M127.65,70.32c-.35,2.27-.63,4.56-1.08,6.82-2.4,12.08-8.28,22.18-17.48,30.34-6.8,6.04-14.66,10.08-23.5,12.17-7.86,1.86-15.77,2-23.69.32-12.55-2.66-22.91-8.96-31.1-18.82-5.36-6.44-8.98-13.77-10.93-21.9-1.9-7.89-2.05-15.82-.38-23.78,2.58-12.28,8.68-22.49,18.17-30.65,6.72-5.77,14.47-9.61,23.1-11.59,2.55-.58,5.19-.81,7.79-1.21.27-.04.54-.12.81-.19,2.42,0,4.84,0,7.26,0,.31.06.61.14.92.19,2.59.4,5.22.64,7.78,1.23,8.59,1.97,16.3,5.79,22.99,11.54,9.97,8.56,16.2,19.31,18.5,32.28.33,1.84.56,3.7.83,5.56v7.68ZM123.81,66.53c-.06-28.06-22.57-50.59-50.36-50.81-28.4-.22-51.1,22.59-51.21,50.47-.12,28.25,22.62,51.07,50.72,51.09,28.03.02,50.84-22.75,50.86-50.75Z" class="cls-1"></path>
      <path d="M39.96,66.47c0-4.58,0-8.98,0-13.39,0-1.49-.02-2.99,0-4.48.04-2.6,1.89-4.49,4.48-4.62.78-.04,1.56-.01,2.35-.01,10.46,0,20.91.06,31.37-.04,3.13-.03,5.44,1.82,5.38,5.37-.13,8-.04,16-.04,24,0,1.84-.33,2.16-2.18,2.16-14.05,0-28.1,0-42.15,0-.18,0-.36,0-.53,0-.99-.04-1.62-.6-1.64-1.44-.02-.83.62-1.47,1.6-1.52.99-.05,1.99-.01,2.99-.01,1.42,0,2.16-.5,2.18-1.47.02-.99-.76-1.53-2.24-1.53-.96,0-1.92.02-2.88,0-.99-.03-1.63-.62-1.65-1.46-.02-.86.68-1.51,1.68-1.55.38-.02.77,0,1.28,0ZM56.16,61.71c.87.98,1.58,1.8,2.32,2.59.77.83,1.53.92,2.22.31.71-.63.72-1.37,0-2.24-.56-.67-1.14-1.33-1.75-2.05.19-.11.3-.18.42-.24,1.55-.86,2.34-2.5,1.97-4.1-.41-1.76-1.82-2.92-3.68-2.96-.99-.03-1.99-.03-2.98,0-.87.03-1.46.54-1.48,1.38-.05,3.06-.05,6.11,0,9.17.01.83.59,1.36,1.46,1.41.77.05,1.45-.64,1.51-1.48.03-.52,0-1.04,0-1.79ZM74.54,56.01c.96,0,1.88.02,2.79,0,1.01-.03,1.69-.7,1.67-1.56-.02-.81-.69-1.42-1.67-1.43-1.39-.02-2.77-.03-4.16,0-1.09.02-1.63.56-1.64,1.66-.02,2.88-.02,5.75,0,8.63,0,1.15.56,1.68,1.72,1.7,1.35.02,2.7.02,4.05,0,1.04-.02,1.7-.62,1.71-1.5,0-.87-.67-1.47-1.71-1.49-.91-.02-1.83,0-2.75,0v-1.52c.38,0,.7,0,1.01,0,.36,0,.71.02,1.07,0,1.02-.06,1.58-.6,1.57-1.5,0-.92-.53-1.42-1.59-1.45-.69-.02-1.39,0-2.07,0v-1.52ZM65.94,56.01c.96,0,1.87.02,2.78,0,.98-.03,1.72-.75,1.68-1.56-.03-.79-.74-1.41-1.69-1.43-1.38-.03-2.77-.03-4.15,0-1.08.02-1.67.58-1.68,1.64-.03,2.88-.02,5.75,0,8.63,0,1.13.6,1.7,1.72,1.72,1.35.03,2.7.02,4.05,0,1.08-.01,1.81-.67,1.78-1.56-.03-.83-.75-1.42-1.79-1.44-.88-.01-1.76,0-2.67,0v-1.52c.38,0,.69,0,1,0,.32,0,.64.01.96,0,1.05-.05,1.7-.64,1.67-1.53-.03-.86-.64-1.4-1.64-1.42-.66-.02-1.33,0-2.01,0v-1.52ZM47.6,56c.96,0,1.88.02,2.79,0,.92-.03,1.6-.71,1.59-1.52,0-.82-.67-1.45-1.62-1.47-1.38-.03-2.77-.03-4.16,0-1.14.02-1.66.56-1.66,1.74-.02,2.81-.01,5.61,0,8.42,0,1.12.61,1.84,1.5,1.81.88-.02,1.48-.75,1.5-1.85.01-.87,0-1.74,0-2.66.85,0,1.53.04,2.2-.01.87-.07,1.49-.49,1.53-1.45.03-.87-.59-1.45-1.58-1.49-.69-.03-1.39,0-2.09,0v-1.52Z" class="cls-1"></path>
      <path d="M86.51,78.03c0-.44,0-.71,0-.98,0-7.29,0-14.58,0-21.87,0-1.76.43-2.19,2.21-2.19,2.7,0,5.41,0,8.11,0,2.77,0,4.73,1.25,5.88,3.78,1.88,4.13,3.78,8.25,5.65,12.39.27.61.51,1.29.53,1.94.09,2.63.23,5.26.08,7.88-.15,2.45-2.07,3.98-4.56,4.01-1.17.01-2.34,0-3.6,0-.6-3.34-2.3-5.82-5.53-7-3.25-1.18-6.11-.28-8.77,2.04ZM96.7,67.96c1.56,0,3.13.03,4.69,0,1.3-.03,1.95-1.01,1.44-2.18-.73-1.69-1.49-3.37-2.29-5.02-.55-1.14-1.5-1.76-2.81-1.76-1.88,0-3.77-.01-5.65,0-1.22,0-1.77.54-1.78,1.74-.02,1.85-.02,3.69,0,5.54.01,1.17.53,1.67,1.72,1.68,1.56.02,3.13,0,4.69,0Z" class="cls-1"></path>
      <path d="M61.97,82.94c-.63-1.54-1.2-2.96-1.82-4.47.23,0,.53,0,.83,0,6.78,0,13.56,0,20.34,0,.85,0,1.86.01,2.02.95.17.99-.06,2.07-.26,3.08-.04.22-.71.46-1.09.46-6.64.03-13.28.02-19.92,0-.1,0-.2-.05-.11-.03Z" class="cls-1"></path>
      <path d="M87.27,83.75c0-2.92,2.39-5.3,5.3-5.28,2.85.03,5.21,2.41,5.21,5.26,0,2.9-2.42,5.32-5.3,5.28-2.88-.04-5.2-2.38-5.21-5.27Z" class="cls-1"></path>
      <path d="M58.77,83.76c-.01,2.87-2.36,5.23-5.23,5.26-2.89.03-5.29-2.38-5.29-5.29,0-2.86,2.37-5.23,5.22-5.25,2.9-.02,5.3,2.38,5.29,5.29Z" class="cls-1"></path>
      <path d="M45.05,82.93c-2.8.21-4.83-1.5-5.04-4.37h6.83c-.57,1.39-1.16,2.83-1.79,4.37Z" class="cls-1"></path>
      <path d="M56.25,55.82c.78.21,1.43.36,2.05.6.08.03.06.68-.03.72-.62.22-1.28.35-2.02.54v-1.85Z" class="cls-1"></path>
    </g>
  </g>
</svg>